<svg width="1440" height="1024" viewBox="0 0 1440 1024" fill="none" xmlns="http://www.w3.org/2000/svg">
<g clip-path="url(#clip0)">
<rect width="1440" height="1024" fill="white"/>
<rect width="1440" height="1024" fill="#0A0909"/>
<circle cx="141.5" cy="364.5" r="6.5" fill="white"/>
<circle cx="260.5" cy="156.5" r="6.5" fill="white"/>
<circle cx="273.5" cy="565.5" r="6.5" fill="white"/>
<circle cx="224.5" cy="452.5" r="6.5" fill="white"/>
<circle cx="91.5" cy="608.5" r="6.5" fill="white"/>
<circle cx="67.5" cy="437.5" r="6.5" fill="white"/>
<circle cx="67.5" cy="149.5" r="6.5" fill="white"/>
<circle cx="173.5" cy="215.5" r="6.5" fill="white"/>
<circle cx="108.5" cy="36.5" r="6.5" fill="white"/>
<circle cx="401.5" cy="240.5" r="6.5" fill="white"/>
<circle cx="237.5" cy="122.5" r="6.5" fill="white"/>
<circle cx="54.5" cy="303.5" r="6.5" fill="white"/>
<circle cx="453.5" cy="424.5" r="6.5" fill="white"/>
<circle cx="299.5" cy="323.5" r="6.5" fill="white"/>
<circle cx="422.5" cy="107.5" r="6.5" fill="white"/>
<circle cx="554.5" cy="308.5" r="6.5" fill="white"/>
<circle cx="505.5" cy="195.5" r="6.5" fill="white"/>
<circle cx="372.5" cy="351.5" r="6.5" fill="white"/>
<circle cx="348.5" cy="180.5" r="6.5" fill="white"/>
<circle cx="335.5" cy="46.5" r="6.5" fill="white"/>
<circle cx="734.5" cy="167.5" r="6.5" fill="white"/>
<circle cx="580.5" cy="66.5" r="6.5" fill="white"/>
<circle cx="488.5" cy="686.5" r="6.5" fill="white"/>
<circle cx="607.5" cy="478.5" r="6.5" fill="white"/>
<circle cx="620.5" cy="887.5" r="6.5" fill="white"/>
<circle cx="571.5" cy="774.5" r="6.5" fill="white"/>
<circle cx="438.5" cy="930.5" r="6.5" fill="white"/>
<circle cx="414.5" cy="759.5" r="6.5" fill="white"/>
<circle cx="414.5" cy="471.5" r="6.5" fill="white"/>
<circle cx="520.5" cy="537.5" r="6.5" fill="white"/>
<circle cx="455.5" cy="358.5" r="6.5" fill="white"/>
<circle cx="748.5" cy="562.5" r="6.5" fill="white"/>
<circle cx="584.5" cy="444.5" r="6.5" fill="white"/>
<circle cx="401.5" cy="625.5" r="6.5" fill="white"/>
<circle cx="800.5" cy="746.5" r="6.5" fill="white"/>
<circle cx="646.5" cy="645.5" r="6.5" fill="white"/>
<circle cx="61.5" cy="953.5" r="6.5" fill="white"/>
<circle cx="180.5" cy="745.5" r="6.5" fill="white"/>
<circle cx="93.5" cy="804.5" r="6.5" fill="white"/>
<circle cx="28.5" cy="625.5" r="6.5" fill="white"/>
<circle cx="321.5" cy="829.5" r="6.5" fill="white"/>
<circle cx="157.5" cy="711.5" r="6.5" fill="white"/>
<circle cx="373.5" cy="1013.5" r="6.5" fill="white"/>
<circle cx="219.5" cy="912.5" r="6.5" fill="white"/>
<circle cx="776.5" cy="776.5" r="6.5" fill="white"/>
<circle cx="895.5" cy="568.5" r="6.5" fill="white"/>
<circle cx="908.5" cy="977.5" r="6.5" fill="white"/>
<circle cx="859.5" cy="864.5" r="6.5" fill="white"/>
<circle cx="726.5" cy="1020.5" r="6.5" fill="white"/>
<circle cx="702.5" cy="849.5" r="6.5" fill="white"/>
<circle cx="702.5" cy="561.5" r="6.5" fill="white"/>
<circle cx="808.5" cy="627.5" r="6.5" fill="white"/>
<circle cx="743.5" cy="448.5" r="6.5" fill="white"/>
<circle cx="1036.5" cy="652.5" r="6.5" fill="white"/>
<circle cx="872.5" cy="534.5" r="6.5" fill="white"/>
<circle cx="689.5" cy="715.5" r="6.5" fill="white"/>
<circle cx="1088.5" cy="836.5" r="6.5" fill="white"/>
<circle cx="934.5" cy="735.5" r="6.5" fill="white"/>
<circle cx="733.5" cy="208.5" r="6.5" fill="white"/>
<circle cx="852.5" cy="0.5" r="6.5" fill="white"/>
<circle cx="865.5" cy="409.5" r="6.5" fill="white"/>
<circle cx="816.5" cy="296.5" r="6.5" fill="white"/>
<circle cx="683.5" cy="452.5" r="6.5" fill="white"/>
<circle cx="659.5" cy="281.5" r="6.5" fill="white"/>
<circle cx="765.5" cy="59.5" r="6.5" fill="white"/>
<circle cx="993.5" cy="84.5" r="6.5" fill="white"/>
<circle cx="646.5" cy="147.5" r="6.5" fill="white"/>
<circle cx="1045.5" cy="268.5" r="6.5" fill="white"/>
<circle cx="891.5" cy="167.5" r="6.5" fill="white"/>
<circle cx="1159.5" cy="58.5" r="6.5" fill="white"/>
<circle cx="1291.5" cy="259.5" r="6.5" fill="white"/>
<circle cx="1242.5" cy="146.5" r="6.5" fill="white"/>
<circle cx="1109.5" cy="302.5" r="6.5" fill="white"/>
<circle cx="1085.5" cy="131.5" r="6.5" fill="white"/>
<circle cx="1072.5" cy="-2.5" r="6.5" fill="white"/>
<circle cx="1317.5" cy="17.5" r="6.5" fill="white"/>
<circle cx="1166.5" cy="954.5" r="6.5" fill="white"/>
<circle cx="1285.5" cy="746.5" r="6.5" fill="white"/>
<circle cx="1092.5" cy="1027.5" r="6.5" fill="white"/>
<circle cx="1092.5" cy="739.5" r="6.5" fill="white"/>
<circle cx="1198.5" cy="805.5" r="6.5" fill="white"/>
<circle cx="1133.5" cy="626.5" r="6.5" fill="white"/>
<circle cx="1426.5" cy="830.5" r="6.5" fill="white"/>
<circle cx="1262.5" cy="712.5" r="6.5" fill="white"/>
<circle cx="1079.5" cy="893.5" r="6.5" fill="white"/>
<circle cx="1324.5" cy="913.5" r="6.5" fill="white"/>
<circle cx="1047.5" cy="536.5" r="6.5" fill="white"/>
<circle cx="1166.5" cy="328.5" r="6.5" fill="white"/>
<circle cx="1179.5" cy="737.5" r="6.5" fill="white"/>
<circle cx="1130.5" cy="624.5" r="6.5" fill="white"/>
<circle cx="997.5" cy="780.5" r="6.5" fill="white"/>
<circle cx="973.5" cy="609.5" r="6.5" fill="white"/>
<circle cx="973.5" cy="321.5" r="6.5" fill="white"/>
<circle cx="1079.5" cy="387.5" r="6.5" fill="white"/>
<circle cx="1014.5" cy="208.5" r="6.5" fill="white"/>
<circle cx="1307.5" cy="412.5" r="6.5" fill="white"/>
<circle cx="1143.5" cy="294.5" r="6.5" fill="white"/>
<circle cx="960.5" cy="475.5" r="6.5" fill="white"/>
<circle cx="1359.5" cy="596.5" r="6.5" fill="white"/>
<circle cx="1205.5" cy="495.5" r="6.5" fill="white"/>
</g>
<defs>
<clipPath id="clip0">
<rect width="1440" height="1024" fill="white"/>
</clipPath>
</defs>
</svg>
