<svg width="501" height="372" viewBox="0 0 501 372" fill="none" xmlns="http://www.w3.org/2000/svg">
<path d="M74.6318 9.99231e-05L425.465 9.99231e-05C439.316 -0.0199545 452.889 3.88282 464.613 11.2567C476.338 18.6306 485.734 29.1741 491.715 41.6667C498.717 56.4893 501.413 72.9806 499.498 89.2613C497.582 105.542 491.132 120.957 480.882 133.75L305.465 346.25C298.581 354.193 290.07 360.563 280.509 364.929C270.948 369.295 260.559 371.555 250.049 371.555C239.538 371.555 229.149 369.295 219.588 364.929C210.027 360.563 201.516 354.193 194.632 346.25L19.2151 133.75C8.96486 120.957 2.51451 105.542 0.599143 89.2613C-1.31623 72.9806 1.38048 56.4893 8.38184 41.6667C14.3627 29.1741 23.7593 18.6306 35.4838 11.2567C47.2082 3.88282 60.7813 -0.0199545 74.6318 9.99231e-05Z" fill="#F8F8F8"/>
</svg>
