<?xml version="1.0" standalone="no"?>
<!DOCTYPE svg PUBLIC "-//W3C//DTD SVG 20010904//EN"
 "http://www.w3.org/TR/2001/REC-SVG-20010904/DTD/svg10.dtd">
<svg version="1.0" xmlns="http://www.w3.org/2000/svg"
 width="300.000000pt" height="300.000000pt" viewBox="0 0 300.000000 300.000000"
 preserveAspectRatio="xMidYMid meet">

<g transform="translate(0.000000,300.000000) scale(0.100000,-0.100000)"
fill="#000000" stroke="none">
<path d="M1332 2593 c-19 -9 -36 -23 -39 -30 -4 -11 -20 -13 -73 -7 -80 8
-144 -15 -178 -64 -17 -23 -32 -31 -67 -37 -55 -8 -110 -52 -118 -94 -5 -26
-61 -91 -78 -91 -16 0 -31 -61 -24 -100 6 -35 4 -44 -13 -56 -11 -8 -28 -33
-37 -57 -15 -40 -15 -46 0 -88 10 -26 19 -85 21 -143 3 -75 9 -108 24 -133 10
-18 24 -50 30 -71 5 -22 26 -59 45 -83 36 -46 43 -78 24 -125 -7 -20 -7 -43 1
-79 19 -84 20 -85 46 -85 26 0 32 26 14 60 -9 16 -31 190 -29 225 4 72 9 120
18 170 7 33 16 92 21 131 17 129 80 233 165 269 17 7 71 14 120 16 120 3 367
-9 422 -21 35 -8 51 -7 79 6 37 18 94 14 169 -12 23 -7 57 -15 77 -16 30 -2
42 -11 65 -43 38 -52 59 -107 68 -175 4 -30 14 -84 22 -119 24 -107 12 -431
-17 -466 -13 -15 -2 -25 25 -25 28 0 35 30 35 146 0 47 4 84 10 84 5 0 17 17
27 38 9 20 26 49 36 64 16 21 19 37 14 75 -4 36 0 57 15 86 14 29 18 49 13 78
-5 27 -3 45 6 55 8 10 13 45 14 94 0 67 -3 83 -23 110 -21 28 -22 35 -12 61 7
16 10 44 6 64 -9 44 -67 105 -101 105 -19 0 -28 8 -39 34 -17 41 -68 81 -123
95 -32 9 -49 21 -70 53 -38 57 -110 94 -153 79 -26 -9 -38 -7 -68 9 -37 20
-100 25 -137 11 -11 -5 -42 -2 -70 5 -67 18 -123 17 -163 -3z"/>
<path d="M1090 1751 c-50 -18 -80 -42 -80 -64 0 -5 10 -6 23 -3 66 19 151 27
230 22 99 -8 112 4 43 38 -56 28 -149 31 -216 7z"/>
<path d="M1732 1755 c-44 -14 -72 -31 -72 -46 0 -4 44 -6 98 -2 71 4 115 1
166 -11 38 -9 72 -14 75 -10 13 13 -59 62 -108 73 -66 14 -105 13 -159 -4z"/>
<path d="M1746 1585 c-49 -13 -96 -48 -96 -73 0 -10 8 -6 25 12 13 14 28 26
32 26 4 0 7 -24 5 -53 -4 -65 10 -80 76 -80 94 1 122 17 122 69 0 19 3 34 6
34 3 0 21 -12 40 -26 42 -32 48 -10 8 25 -73 64 -143 85 -218 66z m40 -64 c-9
-14 -33 -14 -41 -1 -4 6 -1 18 6 26 11 13 14 13 27 0 8 -8 11 -19 8 -25z"/>
<path d="M1124 1576 c-41 -18 -104 -74 -104 -93 0 -11 9 -8 31 11 40 34 45 33
45 -9 0 -48 21 -66 80 -67 108 -2 130 14 121 88 -2 24 -1 44 3 44 5 0 20 -14
34 -31 14 -17 26 -25 26 -17 -1 19 -25 48 -57 70 -34 22 -132 24 -179 4z m56
-41 c0 -9 -7 -18 -16 -22 -18 -7 -39 11 -30 26 11 17 46 13 46 -4z"/>
<path d="M790 1485 c0 -2 11 -21 25 -41 28 -41 30 -41 14 4 -6 17 -17 33 -25
36 -8 3 -14 3 -14 1z"/>
<path d="M2204 1482 c-6 -4 -19 -23 -28 -42 -13 -26 -13 -30 -2 -15 8 11 23
28 32 37 18 19 16 32 -2 20z"/>
<path d="M635 596 c-17 -32 -17 -38 -3 -98 9 -35 23 -79 31 -98 l15 -35 1 56
c1 79 -11 209 -19 209 -4 0 -15 -15 -25 -34z"/>
<path d="M2330 532 c0 -50 -1 -94 -2 -97 0 -2 -4 -25 -8 -50 -6 -36 -4 -43 5
-33 24 26 56 120 58 168 2 42 -2 54 -25 77 l-28 28 0 -93z"/>
<path d="M704 246 c-18 -46 -19 -46 796 -46 757 0 766 0 788 20 12 12 22 26
22 32 0 6 -8 4 -18 -6 -17 -15 -81 -16 -791 -14 -667 3 -773 5 -781 18 -8 12
-10 12 -16 -4z"/>
</g>
</svg>
