<svg width="1200" height="288" viewBox="0 0 1200 288" fill="none" xmlns="http://www.w3.org/2000/svg">
<path fill-rule="evenodd" clip-rule="evenodd" d="M0 108L22 90C44 72 89 36 133 42C178 48 222 96 267 96C311 96 356 48 400 54C444 60 489 120 533 168C578 216 622 252 667 252C711 252 756 216 800 222C844 228 889 276 933 270C978 264 1022 204 1067 198C1111 192 1156 240 1178 264L1200 288V0H1178C1156 0 1111 0 1067 0C1022 0 978 0 933 0C889 0 844 0 800 0C756 0 711 0 667 0C622 0 578 0 533 0C489 0 444 0 400 0C356 0 311 0 267 0C222 0 178 0 133 0C89 0 44 0 22 0H0V108Z" fill="#313BB1"/>
</svg>
