<svg width="1000" height="1000" viewBox="0 0 1000 1000" fill="none" xmlns="http://www.w3.org/2000/svg">
<path d="M500 541.667C569.036 541.667 625 485.702 625 416.667C625 347.631 569.036 291.667 500 291.667C430.964 291.667 375 347.631 375 416.667C375 485.702 430.964 541.667 500 541.667Z" stroke="#5A7FBE" stroke-width="83.3333" stroke-linecap="round" stroke-linejoin="round"/>
<path d="M500 83.3333C411.595 83.3333 326.81 118.452 264.298 180.964C201.786 243.477 166.667 328.261 166.667 416.667C166.667 495.5 183.417 547.083 229.167 604.167L500 916.667L770.833 604.167C816.583 547.083 833.333 495.5 833.333 416.667C833.333 328.261 798.215 243.477 735.702 180.964C673.19 118.452 588.406 83.3333 500 83.3333V83.3333Z" stroke="#5A7FBE" stroke-width="83.3333" stroke-linecap="round" stroke-linejoin="round"/>
</svg>
