<svg width="918" height="839" viewBox="0 0 918 839" fill="none" xmlns="http://www.w3.org/2000/svg">
<path d="M42.3333 383.792C42.3321 356.994 48.7924 330.592 61.1667 306.823C73.5409 283.053 91.4641 262.618 113.417 247.25L363.417 72.25C391.432 52.6375 424.802 42.1176 459 42.1176C493.198 42.1176 526.568 52.6375 554.583 72.25L804.583 247.25C826.536 262.618 844.459 283.053 856.833 306.823C869.207 330.592 875.668 356.994 875.667 383.792V713.667C875.667 735.768 866.887 756.964 851.259 772.592C835.631 788.22 814.435 797 792.333 797H125.667C103.565 797 82.369 788.22 66.741 772.592C51.113 756.964 42.3333 735.768 42.3333 713.667V383.792Z" stroke="#5A7FBE" stroke-width="83.3333" stroke-linecap="round" stroke-linejoin="round"/>
<path d="M42.3333 297L354.875 547.042C384.429 570.688 421.151 583.571 459 583.571C496.849 583.571 533.571 570.688 563.125 547.042L875.667 297" stroke="#5A7FBE" stroke-width="83.3333" stroke-linejoin="round"/>
</svg>
