<svg width="947" height="770" viewBox="0 0 947 770" fill="none" xmlns="http://www.w3.org/2000/svg">
<path d="M946.125 91.7083C911.333 107.125 873.958 117.542 834.667 122.25C875.208 97.9913 905.539 59.8111 920 14.8333C881.91 37.4579 840.223 53.3831 796.75 61.9167C767.516 30.7027 728.794 10.0136 686.597 3.0614C644.4 -3.89077 601.087 3.28296 563.385 23.4689C525.682 43.6547 495.699 75.7234 478.09 114.696C460.48 153.669 456.231 197.365 466 239C388.82 235.125 313.318 215.065 244.393 180.121C175.467 145.178 114.66 96.1317 65.9166 36.1667C49.25 64.9167 39.6666 98.25 39.6666 133.75C39.648 165.708 47.518 197.177 62.5782 225.364C77.6385 253.551 99.4234 277.585 126 295.333C95.1781 294.353 65.0363 286.024 38.0833 271.042V273.542C38.0802 318.364 53.5847 361.807 81.9659 396.5C110.347 431.192 149.857 454.997 193.792 463.875C165.199 471.613 135.222 472.753 106.125 467.208C118.521 505.776 142.666 539.501 175.182 563.664C207.697 587.826 246.955 601.216 287.458 601.958C218.701 655.934 133.787 685.212 46.375 685.083C30.8908 685.088 15.4198 684.183 0.041626 682.375C88.7698 739.424 192.056 769.701 297.542 769.583C654.625 769.583 849.833 473.833 849.833 217.333C849.833 209 849.625 200.583 849.25 192.25C887.22 164.791 919.996 130.787 946.042 91.8333L946.125 91.7083V91.7083Z" fill="#5A7FBE"/>
</svg>
