<svg width="1440" height="151" viewBox="0 0 1440 151" fill="none" xmlns="http://www.w3.org/2000/svg">
<g filter="url(#filter0_d)">
<path fill-rule="evenodd" clip-rule="evenodd" d="M1441.94 121.454L1393.85 116.393C1345.75 111.333 1249.55 101.212 1153.36 88.5601C1057.16 75.9087 960.963 60.7269 864.767 60.7269C768.57 60.7269 672.374 75.9087 576.178 75.9087C479.981 75.9087 383.785 60.7269 287.589 58.1966C191.393 55.6664 95.1963 65.7875 47.0981 70.8481L-1 75.9087V8.58307e-06H47.0981C95.1963 8.58307e-06 191.393 8.58307e-06 287.589 8.58307e-06C383.785 8.58307e-06 479.981 8.58307e-06 576.178 8.58307e-06C672.374 8.58307e-06 768.57 8.58307e-06 864.767 8.58307e-06C960.963 8.58307e-06 1057.16 8.58307e-06 1153.36 8.58307e-06C1249.55 8.58307e-06 1345.75 8.58307e-06 1393.85 8.58307e-06H1441.94V121.454Z" fill="#2854FF"/>
</g>
<defs>
<filter id="filter0_d" x="-3" y="0" width="1454.94" height="150.454" filterUnits="userSpaceOnUse" color-interpolation-filters="sRGB">
<feFlood flood-opacity="0" result="BackgroundImageFix"/>
<feColorMatrix in="SourceAlpha" type="matrix" values="0 0 0 0 0 0 0 0 0 0 0 0 0 0 0 0 0 0 127 0" result="hardAlpha"/>
<feOffset dx="4" dy="23"/>
<feGaussianBlur stdDeviation="3"/>
<feComposite in2="hardAlpha" operator="out"/>
<feColorMatrix type="matrix" values="0 0 0 0 0 0 0 0 0 0 0 0 0 0 0 0 0 0 0.25 0"/>
<feBlend mode="normal" in2="BackgroundImageFix" result="effect1_dropShadow"/>
<feBlend mode="normal" in="SourceGraphic" in2="effect1_dropShadow" result="shape"/>
</filter>
</defs>
</svg>
